<svg xmlns="http://www.w3.org/2000/svg" viewBox="0 0 512 512">
<path d="M467 0H45C20.187 0 0 20.187 0 45v30c0 8.284 6.716 15 15 15h17.014l55.457 383.364C90.618 495.39 109.769 512 132.019 512h247.962c22.25 0 41.401-16.61 44.544-38.61L479.986 90H497c8.284 0 15-6.716 15-15V45c0-24.813-20.187-45-45-45zm-72.17 469.122c-1.049 7.342-7.433 12.878-14.849 12.878H132.019c-7.417 0-13.801-5.537-14.853-12.905L62.326 90h387.348L394.83 469.122zM482 60H30V45c0-8.271 6.729-15 15-15h422c8.271 0 15 6.729 15 15v15z"/><path d="M228.756 266.889l-10.98-40.981a.019.019 0 01-.002-.007c-2.12-7.892-10.281-12.756-18.389-10.594l-40.961 10.976c-8.002 2.144-12.75 10.369-10.606 18.371 2.144 8.001 10.367 12.75 18.371 10.606l6.062-1.624-23.626 41.037C131.48 324.677 153.119 362 187.695 362c8.284 0 15-6.716 15-15s-6.716-15-15-15c-11.56 0-18.716-12.48-13.048-22.4l23.54-40.887 1.592 5.941c2.144 8.004 10.372 12.751 18.371 10.606 8.002-2.144 12.75-10.369 10.606-18.371zM339.146 199.756c-7.992-2.143-16.227 2.604-18.371 10.606l-1.734 6.471-24.321-41.205c-17.323-30.195-60.849-30.141-78.107.062-4.109 7.194-1.61 16.356 5.583 20.467 7.196 4.11 16.356 1.61 20.466-5.582 5.762-10.085 20.298-10.081 26.059.022l.113.194 23.872 40.445-5.519-1.479c-7.997-2.143-16.228 2.604-18.372 10.606-2.144 8.002 2.604 16.227 10.606 18.371l40.98 10.981c.017.004.035.007.052.012 8.071 2.114 16.199-2.695 18.32-10.619l10.98-40.981c2.144-8.002-2.605-16.227-10.607-18.371zM363.017 294.521c-4.139-7.177-13.312-9.637-20.488-5.499-7.176 4.139-9.638 13.312-5.498 20.488 5.772 10.007-1.449 22.489-12.997 22.489h-46.821l4.393-4.394c5.858-5.858 5.858-15.355 0-21.213-5.857-5.858-15.355-5.858-21.213 0l-29.997 29.998c-5.899 5.896-5.789 15.43 0 21.218l29.997 29.998c5.857 5.858 15.355 5.858 21.213 0 5.858-5.858 5.858-15.355 0-21.213L277.213 362h46.821c34.626 0 56.304-37.449 38.983-67.479z"/>
</svg>